<svg width="700" height="235" viewBox="0 0 700 235" fill="none" xmlns="http://www.w3.org/2000/svg">
<g filter="url(#filter0_d_2_1209)">
<rect x="84" y="80.0001" width="532" height="67" rx="10" fill="white"/>
</g>
<path d="M123.071 109.032V112.76H127.135V113.96H123.071V117.8H127.615V119H121.615V107.832H127.615V109.032H123.071ZM134.09 110.072C135.157 110.072 136.021 110.397 136.682 111.048C137.343 111.688 137.674 112.616 137.674 113.832V119H136.234V114.04C136.234 113.165 136.015 112.499 135.578 112.04C135.141 111.571 134.543 111.336 133.786 111.336C133.018 111.336 132.405 111.576 131.946 112.056C131.498 112.536 131.274 113.235 131.274 114.152V119H129.818V110.232H131.274V111.48C131.562 111.032 131.951 110.685 132.442 110.44C132.943 110.195 133.493 110.072 134.09 110.072ZM141.828 111.432V116.6C141.828 117.027 141.919 117.331 142.1 117.512C142.282 117.683 142.596 117.768 143.044 117.768H144.116V119H142.804C141.994 119 141.386 118.813 140.98 118.44C140.575 118.067 140.372 117.453 140.372 116.6V111.432H139.236V110.232H140.372V108.024H141.828V110.232H144.116V111.432H141.828ZM153.88 114.28C153.88 114.557 153.864 114.851 153.832 115.16H146.824C146.878 116.024 147.171 116.701 147.704 117.192C148.248 117.672 148.904 117.912 149.672 117.912C150.302 117.912 150.824 117.768 151.24 117.48C151.667 117.181 151.966 116.787 152.136 116.296H153.704C153.47 117.139 153 117.827 152.296 118.36C151.592 118.883 150.718 119.144 149.672 119.144C148.84 119.144 148.094 118.957 147.432 118.584C146.782 118.211 146.27 117.683 145.896 117C145.523 116.307 145.336 115.507 145.336 114.6C145.336 113.693 145.518 112.899 145.88 112.216C146.243 111.533 146.75 111.011 147.4 110.648C148.062 110.275 148.819 110.088 149.672 110.088C150.504 110.088 151.24 110.269 151.88 110.632C152.52 110.995 153.011 111.496 153.352 112.136C153.704 112.765 153.88 113.48 153.88 114.28ZM152.376 113.976C152.376 113.421 152.254 112.947 152.008 112.552C151.763 112.147 151.427 111.843 151 111.64C150.584 111.427 150.12 111.32 149.608 111.32C148.872 111.32 148.243 111.555 147.72 112.024C147.208 112.493 146.915 113.144 146.84 113.976H152.376ZM157.258 111.656C157.514 111.155 157.877 110.765 158.346 110.488C158.826 110.211 159.408 110.072 160.09 110.072V111.576H159.706C158.074 111.576 157.258 112.461 157.258 114.232V119H155.802V110.232H157.258V111.656ZM173.589 110.232L168.309 123.128H166.805L168.533 118.904L164.997 110.232H166.613L169.365 117.336L172.085 110.232H173.589ZM178.876 119.144C178.055 119.144 177.308 118.957 176.636 118.584C175.975 118.211 175.452 117.683 175.068 117C174.695 116.307 174.508 115.507 174.508 114.6C174.508 113.704 174.7 112.915 175.084 112.232C175.479 111.539 176.012 111.011 176.684 110.648C177.356 110.275 178.108 110.088 178.94 110.088C179.772 110.088 180.524 110.275 181.196 110.648C181.868 111.011 182.396 111.533 182.78 112.216C183.175 112.899 183.372 113.693 183.372 114.6C183.372 115.507 183.17 116.307 182.764 117C182.37 117.683 181.831 118.211 181.148 118.584C180.466 118.957 179.708 119.144 178.876 119.144ZM178.876 117.864C179.399 117.864 179.89 117.741 180.348 117.496C180.807 117.251 181.175 116.883 181.452 116.392C181.74 115.901 181.884 115.304 181.884 114.6C181.884 113.896 181.746 113.299 181.468 112.808C181.191 112.317 180.828 111.955 180.38 111.72C179.932 111.475 179.447 111.352 178.924 111.352C178.391 111.352 177.9 111.475 177.452 111.72C177.015 111.955 176.663 112.317 176.396 112.808C176.13 113.299 175.996 113.896 175.996 114.6C175.996 115.315 176.124 115.917 176.38 116.408C176.647 116.899 176.999 117.267 177.436 117.512C177.874 117.747 178.354 117.864 178.876 117.864ZM193.063 110.232V119H191.607V117.704C191.329 118.152 190.94 118.504 190.439 118.76C189.948 119.005 189.404 119.128 188.807 119.128C188.124 119.128 187.511 118.989 186.967 118.712C186.423 118.424 185.991 117.997 185.671 117.432C185.361 116.867 185.207 116.179 185.207 115.368V110.232H186.647V115.176C186.647 116.04 186.865 116.707 187.303 117.176C187.74 117.635 188.337 117.864 189.095 117.864C189.873 117.864 190.487 117.624 190.935 117.144C191.383 116.664 191.607 115.965 191.607 115.048V110.232H193.063ZM196.977 111.656C197.233 111.155 197.596 110.765 198.065 110.488C198.545 110.211 199.126 110.072 199.809 110.072V111.576H199.425C197.793 111.576 196.977 112.461 196.977 114.232V119H195.521V110.232H196.977V111.656ZM213.755 114.28C213.755 114.557 213.739 114.851 213.707 115.16H206.699C206.753 116.024 207.046 116.701 207.579 117.192C208.123 117.672 208.779 117.912 209.547 117.912C210.177 117.912 210.699 117.768 211.115 117.48C211.542 117.181 211.841 116.787 212.011 116.296H213.579C213.345 117.139 212.875 117.827 212.171 118.36C211.467 118.883 210.593 119.144 209.547 119.144C208.715 119.144 207.969 118.957 207.307 118.584C206.657 118.211 206.145 117.683 205.771 117C205.398 116.307 205.211 115.507 205.211 114.6C205.211 113.693 205.393 112.899 205.755 112.216C206.118 111.533 206.625 111.011 207.275 110.648C207.937 110.275 208.694 110.088 209.547 110.088C210.379 110.088 211.115 110.269 211.755 110.632C212.395 110.995 212.886 111.496 213.227 112.136C213.579 112.765 213.755 113.48 213.755 114.28ZM212.251 113.976C212.251 113.421 212.129 112.947 211.883 112.552C211.638 112.147 211.302 111.843 210.875 111.64C210.459 111.427 209.995 111.32 209.483 111.32C208.747 111.32 208.118 111.555 207.595 112.024C207.083 112.493 206.79 113.144 206.715 113.976H212.251ZM226.221 110.072C226.904 110.072 227.512 110.216 228.045 110.504C228.579 110.781 229 111.203 229.309 111.768C229.619 112.333 229.773 113.021 229.773 113.832V119H228.333V114.04C228.333 113.165 228.115 112.499 227.677 112.04C227.251 111.571 226.669 111.336 225.933 111.336C225.176 111.336 224.573 111.581 224.125 112.072C223.677 112.552 223.453 113.251 223.453 114.168V119H222.013V114.04C222.013 113.165 221.795 112.499 221.357 112.04C220.931 111.571 220.349 111.336 219.613 111.336C218.856 111.336 218.253 111.581 217.805 112.072C217.357 112.552 217.133 113.251 217.133 114.168V119H215.677V110.232H217.133V111.496C217.421 111.037 217.805 110.685 218.285 110.44C218.776 110.195 219.315 110.072 219.901 110.072C220.637 110.072 221.288 110.237 221.853 110.568C222.419 110.899 222.84 111.384 223.117 112.024C223.363 111.405 223.768 110.925 224.333 110.584C224.899 110.243 225.528 110.072 226.221 110.072ZM231.618 114.584C231.618 113.688 231.799 112.904 232.162 112.232C232.524 111.549 233.02 111.021 233.65 110.648C234.29 110.275 234.999 110.088 235.778 110.088C236.546 110.088 237.212 110.253 237.778 110.584C238.343 110.915 238.764 111.331 239.042 111.832V110.232H240.514V119H239.042V117.368C238.754 117.88 238.322 118.307 237.746 118.648C237.18 118.979 236.519 119.144 235.762 119.144C234.983 119.144 234.279 118.952 233.65 118.568C233.02 118.184 232.524 117.645 232.162 116.952C231.799 116.259 231.618 115.469 231.618 114.584ZM239.042 114.6C239.042 113.939 238.908 113.363 238.642 112.872C238.375 112.381 238.012 112.008 237.554 111.752C237.106 111.485 236.61 111.352 236.066 111.352C235.522 111.352 235.026 111.48 234.578 111.736C234.13 111.992 233.772 112.365 233.506 112.856C233.239 113.347 233.106 113.923 233.106 114.584C233.106 115.256 233.239 115.843 233.506 116.344C233.772 116.835 234.13 117.213 234.578 117.48C235.026 117.736 235.522 117.864 236.066 117.864C236.61 117.864 237.106 117.736 237.554 117.48C238.012 117.213 238.375 116.835 238.642 116.344C238.908 115.843 239.042 115.261 239.042 114.6ZM243.726 108.808C243.449 108.808 243.214 108.712 243.022 108.52C242.83 108.328 242.734 108.093 242.734 107.816C242.734 107.539 242.83 107.304 243.022 107.112C243.214 106.92 243.449 106.824 243.726 106.824C243.993 106.824 244.217 106.92 244.398 107.112C244.59 107.304 244.686 107.539 244.686 107.816C244.686 108.093 244.59 108.328 244.398 108.52C244.217 108.712 243.993 108.808 243.726 108.808ZM244.43 110.232V119H242.974V110.232H244.43ZM248.368 107.16V119H246.912V107.16H248.368Z" fill="#787878"/>
<defs>
<filter id="filter0_d_2_1209" x="0" y="0.00012207" width="700" height="235" filterUnits="userSpaceOnUse" color-interpolation-filters="sRGB">
<feFlood flood-opacity="0" result="BackgroundImageFix"/>
<feColorMatrix in="SourceAlpha" type="matrix" values="0 0 0 0 0 0 0 0 0 0 0 0 0 0 0 0 0 0 127 0" result="hardAlpha"/>
<feOffset dy="4"/>
<feGaussianBlur stdDeviation="42"/>
<feColorMatrix type="matrix" values="0 0 0 0 0 0 0 0 0 0 0 0 0 0 0 0 0 0 0.07 0"/>
<feBlend mode="normal" in2="BackgroundImageFix" result="effect1_dropShadow_2_1209"/>
<feBlend mode="normal" in="SourceGraphic" in2="effect1_dropShadow_2_1209" result="shape"/>
</filter>
</defs>
</svg>
